<?xml version="1.0" standalone="no"?>
<!DOCTYPE svg PUBLIC "-//W3C//DTD SVG 20010904//EN"
 "http://www.w3.org/TR/2001/REC-SVG-20010904/DTD/svg10.dtd">
<svg version="1.0" xmlns="http://www.w3.org/2000/svg"
 width="429.000000pt" height="429.000000pt" viewBox="0 0 429.000000 429.000000"
 preserveAspectRatio="xMidYMid meet">
<metadata>
Created by potrace 1.14, written by Peter Selinger 2001-2017
</metadata>
<g transform="translate(0.000000,429.000000) scale(0.100000,-0.100000)"
fill="#000000" stroke="none">
<path d="M358 3773 c-5 -7 -14 -11 -18 -8 -5 3 -22 -6 -38 -20 -16 -14 -34
-25 -39 -25 -10 0 -25 -24 -62 -95 -23 -44 -25 -57 -20 -110 4 -33 4 -64 1
-69 -3 -5 0 -6 5 -3 12 8 36 -17 26 -26 -3 -4 -1 -7 5 -7 16 0 142 -121 136
-131 -3 -5 0 -9 5 -9 6 0 11 5 11 10 0 6 6 10 13 10 7 0 14 14 16 33 2 17 4
41 6 52 3 25 -12 45 -35 45 -19 0 -79 28 -81 38 -11 55 6 136 23 110 5 -9 8
-8 8 5 0 26 57 77 86 77 13 0 24 5 24 11 0 8 18 10 58 5 52 -5 55 -4 38 9 -18
13 -53 20 -95 17 -8 0 -23 6 -34 13 -19 13 -19 13 1 24 30 16 50 14 85 -11 17
-12 27 -17 23 -10 -4 7 -2 12 3 12 6 0 11 -7 11 -16 0 -9 5 -12 12 -8 6 4 17
-1 25 -12 8 -11 17 -15 21 -9 11 15 34 17 30 3 -3 -7 -20 -18 -39 -25 -19 -7
-28 -12 -21 -12 7 -1 10 -5 7 -11 -3 -5 1 -10 10 -10 8 0 18 -8 22 -17 3 -10
13 -26 21 -35 8 -10 12 -18 9 -18 -4 0 -2 -11 3 -25 6 -16 6 -26 -1 -31 -6 -4
-5 -11 3 -22 9 -11 10 -16 2 -19 -7 -2 -10 -13 -7 -23 3 -11 -7 -46 -23 -77
-18 -38 -24 -58 -16 -61 23 -7 12 -19 -13 -14 -26 5 -31 -3 -15 -28 6 -9 10
-11 10 -3 0 7 7 10 16 6 14 -5 14 -7 -2 -16 -13 -7 -20 -5 -30 7 -10 14 -17
15 -32 7 -11 -6 -23 -7 -27 -3 -3 4 -6 2 -4 -3 1 -6 -34 -46 -78 -90 -85 -86
-122 -146 -143 -234 -24 -102 5 -225 87 -362 32 -54 37 -58 48 -42 9 13 10 22
3 30 -6 7 -7 21 -3 30 6 17 7 17 21 -1 13 -18 15 -18 26 -4 7 9 30 24 51 33
22 10 44 29 50 42 9 20 37 33 37 17 0 -13 -104 -109 -116 -106 -8 2 -14 -2
-14 -8 0 -6 4 -8 10 -5 5 3 10 3 10 -2 0 -4 -16 -19 -36 -33 l-36 -24 23 -21
c13 -11 34 -31 46 -44 l21 -24 27 42 c16 23 32 38 39 34 6 -3 8 -3 4 2 -4 4 5
23 20 43 15 19 26 37 25 39 -9 12 12 62 27 66 16 4 17 2 7 -22 -6 -14 -17 -31
-24 -37 -7 -6 -10 -14 -7 -17 7 -7 -35 -83 -74 -136 l-25 -33 29 -24 c16 -13
34 -23 41 -24 6 0 13 -4 15 -9 4 -11 85 -61 98 -61 6 0 22 -7 36 -16 24 -16
24 -18 7 -33 -15 -15 -45 -31 -63 -35 -3 -1 -16 -8 -29 -15 -17 -9 -21 -10
-16 -1 4 7 -5 4 -19 -5 -15 -10 -39 -20 -54 -22 -40 -7 -201 -7 -248 -1 -49 7
-72 -3 -51 -21 41 -34 324 -63 357 -37 18 15 70 37 70 31 0 -2 -14 -12 -32
-21 -18 -9 -38 -23 -46 -30 -7 -8 -20 -14 -28 -14 -8 0 -26 -7 -39 -16 -14 -9
-25 -13 -25 -9 0 4 -7 2 -15 -5 -8 -6 -18 -9 -24 -6 -5 3 -11 2 -13 -3 -11
-32 -268 -30 -268 2 0 6 -3 7 -6 4 -4 -3 -16 -2 -26 4 -23 12 -52 -6 -32 -19
6 -4 14 -16 17 -26 4 -10 10 -16 13 -13 3 3 25 -1 47 -9 61 -22 181 -37 202
-25 5 3 32 6 60 7 27 1 52 3 55 4 10 5 25 7 57 8 17 1 38 8 45 15 7 8 21 13
31 11 9 -1 20 3 24 9 5 7 28 22 52 35 35 18 46 20 54 10 6 -9 7 -8 3 5 -3 9
-2 17 2 18 8 1 29 5 52 10 8 2 23 14 33 27 10 12 23 20 28 17 5 -4 9 -1 9 5 0
6 5 8 10 5 6 -3 10 -1 10 4 0 16 36 13 50 -4 14 -16 6 -61 -14 -85 -8 -8 -16
-27 -20 -42 -5 -23 -3 -28 13 -28 11 0 23 5 26 10 4 6 11 8 16 5 5 -4 9 -2 9
3 0 5 10 8 23 8 12 -1 27 0 32 3 6 3 21 6 35 7 16 0 24 5 21 15 -2 8 -4 30 -5
49 -2 33 -4 35 -34 32 -18 -2 -32 1 -32 7 0 6 8 11 18 12 9 0 27 2 40 3 13 2
25 0 27 -3 2 -4 5 -38 6 -76 2 -39 5 -76 7 -83 5 -15 92 -55 131 -61 8 -1 48
-59 60 -86 2 -5 10 -16 18 -24 8 -7 12 -20 9 -28 -3 -8 -2 -12 3 -9 11 7 25
-23 22 -44 -2 -8 0 -12 5 -8 4 5 14 -2 22 -14 l15 -21 8 21 c17 45 30 22 27
-48 -3 -62 -5 -69 -23 -69 -18 0 -56 -7 -62 -11 -7 -6 -51 -5 -74 1 -16 4 -32
2 -38 -4 -7 -7 -11 -7 -11 -1 0 5 -20 10 -45 9 -25 0 -45 3 -45 7 0 5 -9 8
-20 8 -11 0 -20 4 -20 9 0 5 -18 8 -40 7 -22 -1 -46 1 -53 6 -6 4 -10 8 -7 9
3 0 14 3 25 5 11 3 38 5 60 5 28 -1 36 2 25 8 -8 6 -17 8 -21 5 -4 -2 -10 0
-14 6 -4 6 -11 8 -16 4 -5 -3 -16 -1 -23 5 -10 9 -25 7 -57 -5 -24 -10 -47
-22 -50 -27 -3 -5 -10 -8 -15 -6 -5 1 -14 -8 -20 -21 -8 -15 -13 -18 -17 -8
-2 7 -9 -3 -14 -22 -5 -19 -15 -36 -21 -36 -7 -1 -15 -2 -19 -3 -18 -3 -60
-47 -56 -58 5 -13 -20 -17 -92 -15 -34 1 -65 -23 -65 -49 0 -18 -15 -32 -38
-35 -9 -2 -11 3 -8 13 5 12 4 13 -7 5 -8 -7 -16 -10 -19 -7 -10 10 -43 -38
-44 -64 -1 -14 -18 -87 -39 -161 -20 -74 -38 -139 -39 -145 -1 -5 -4 -14 -7
-20 -4 -5 -10 -28 -14 -50 -4 -22 -10 -44 -13 -50 -7 -11 -7 -13 -17 -59 -3
-16 -12 -54 -19 -85 -7 -31 -14 -83 -15 -116 -2 -33 -8 -66 -14 -74 -9 -11 -9
-13 -1 -8 7 4 17 0 23 -7 10 -12 297 -14 1900 -16 1706 -1 1889 1 1901 15 17
20 8 171 -14 247 -56 191 -66 227 -70 260 -2 20 -9 44 -14 55 -5 10 -17 52
-26 93 -25 108 -47 182 -54 176 -3 -3 -11 -1 -19 5 -7 6 -13 8 -13 5 0 -4 -9
-2 -20 4 -11 6 -20 17 -20 25 0 33 -28 43 -112 41 -67 -1 -85 1 -97 16 -14 16
-16 16 -33 1 -10 -9 -18 -12 -18 -7 0 5 -4 3 -9 -4 -4 -7 -16 -14 -26 -16 -9
-1 -26 -13 -36 -27 l-19 -24 -1 25 c0 14 -2 33 -4 44 -7 38 4 44 69 41 59 -2
62 -1 60 19 -1 11 -3 28 -3 37 -1 15 -43 43 -66 44 -13 0 -39 35 -32 42 3 2
-1 26 -9 51 -12 40 -18 66 -28 127 -1 6 -5 15 -9 21 -4 7 3 31 16 55 33 65 47
108 36 115 -5 3 -9 -1 -10 -8 0 -7 -4 -3 -9 9 -11 27 -48 23 -69 -7 -14 -21
-50 -28 -52 -10 -1 6 -2 14 -3 19 0 6 -7 16 -13 22 -7 7 -13 17 -13 21 0 5
-12 22 -27 39 -38 43 -46 51 -79 74 -28 20 -42 33 -87 88 -13 15 -33 29 -46
32 -13 2 -31 11 -41 20 -9 8 -23 15 -32 15 -8 0 -18 3 -22 8 -4 4 -11 7 -14 8
-4 0 -35 13 -69 29 -59 26 -73 38 -55 48 4 2 1 2 -6 0 -7 -1 -25 6 -40 17 -15
11 -38 23 -52 26 -14 3 -29 6 -35 8 -5 2 -22 6 -37 11 -16 4 -28 11 -28 17 0
5 -5 6 -10 3 -6 -4 -21 0 -34 9 -19 12 -50 15 -142 13 -66 -1 -123 -5 -129 -8
-5 -3 -28 -4 -50 -2 -59 5 -59 5 -75 0 -8 -2 -27 -9 -42 -15 -15 -6 -50 -14
-78 -17 -29 -3 -62 -12 -73 -19 -48 -30 -178 18 -198 72 -2 5 -22 12 -44 16
-39 6 -74 11 -125 20 -14 3 -38 5 -53 5 -16 1 -26 5 -23 10 3 5 -1 12 -10 15
-9 4 -15 9 -12 12 3 3 -2 35 -11 72 -14 54 -23 71 -49 88 -27 19 -38 20 -88
12 -31 -5 -66 -14 -78 -20 -36 -19 -73 -18 -122 3 -73 33 -170 13 -211 -43
-30 -39 -92 -64 -211 -85 -65 -11 -77 -11 -91 1 -8 6 -16 10 -18 8 -2 -2 -28
2 -59 8 -59 12 -129 62 -120 86 3 7 0 11 -7 8 -14 -5 -54 51 -49 69 2 7 0 9
-4 4 -10 -9 -36 52 -28 64 3 6 1 16 -5 23 -17 20 -1 106 23 132 12 12 22 28
24 35 2 8 20 30 40 50 20 20 45 51 55 69 10 20 23 30 31 27 9 -4 13 0 11 11
-1 9 2 20 8 23 5 4 11 15 12 25 4 33 17 64 26 64 5 0 9 14 9 30 0 17 -4 30 -9
30 -11 0 -9 18 7 47 16 28 15 46 0 37 -10 -5 -10 -4 -1 6 13 14 -2 59 -24 73
-17 11 -17 31 1 24 10 -4 9 5 -5 33 -26 54 -104 128 -164 156 -59 27 -180 38
-197 17z m-5 -90 c-9 -7 -23 -13 -30 -13 -7 0 -13 -5 -13 -11 0 -5 -4 -8 -9
-4 -18 11 -7 46 16 51 13 4 23 11 23 17 0 6 7 2 15 -9 12 -17 12 -20 -2 -31z
m-68 -63 c3 -5 1 -10 -4 -10 -6 0 -11 -7 -11 -15 0 -8 -7 -15 -15 -15 -8 0
-15 5 -15 11 0 5 5 7 12 3 7 -4 8 -3 4 4 -8 13 0 32 14 32 5 0 12 -4 15 -10z
m350 0 c-3 -5 -12 -10 -18 -10 -7 0 -6 4 3 10 19 12 23 12 15 0z m25 -30 c0
-5 -5 -10 -11 -10 -5 0 -7 5 -4 10 3 6 8 10 11 10 2 0 4 -4 4 -10z m-412 -69
l1 -46 -14 40 c-18 50 -18 52 -1 52 9 0 14 -14 14 -46z m442 -21 c0 -5 -8 -10
-17 -10 -15 0 -16 2 -3 10 19 12 20 12 20 0z m6 -55 c3 -20 3 -20 -12 -1 -17
23 -19 13 -3 -16 8 -15 8 -19 0 -14 -6 4 -11 2 -11 -3 0 -6 5 -11 11 -11 19 0
5 -42 -20 -59 -24 -16 -24 -16 -16 14 5 17 10 46 11 65 3 52 3 52 21 48 9 -2
17 -12 19 -23z m-44 -183 c13 -13 5 -15 -29 -6 -13 4 -23 10 -23 15 0 12 38 5
52 -9z m-99 -86 c15 -4 27 -13 27 -21 0 -8 -12 -22 -27 -32 -16 -9 -38 -26
-50 -37 -30 -25 -41 -14 -14 13 25 25 26 31 6 31 -8 0 -15 5 -15 10 0 6 15 10
33 10 l32 0 -25 20 c-14 11 -18 18 -10 16 8 -2 27 -7 43 -10z m-176 -152 c-3
-3 -12 -4 -19 -1 -8 3 -5 6 6 6 11 1 17 -2 13 -5z m43 -34 c0 -5 -10 -10 -22
-9 -22 0 -22 1 -3 9 11 5 21 9 23 9 1 1 2 -3 2 -9z m55 -80 c3 -5 1 -10 -4
-10 -6 0 -11 5 -11 10 0 6 2 10 4 10 3 0 8 -4 11 -10z m-110 -29 c-7 -13 -62
-24 -76 -15 -8 5 -7 9 2 15 19 12 82 11 74 0z m0 -49 c-46 -27 -82 -41 -89
-35 -11 12 -6 25 8 20 8 -3 17 0 20 8 5 13 28 21 71 24 15 1 13 -3 -10 -17z
m115 -26 c0 -11 -111 -69 -137 -72 -38 -3 -49 8 -28 26 10 9 15 9 15 1 0 -6 5
-11 11 -11 5 0 8 4 4 9 -7 13 61 45 80 37 8 -3 15 -1 15 4 0 6 9 10 20 10 11
0 20 -2 20 -4z m-21 -68 c-2 -2 -24 -17 -49 -34 -31 -22 -51 -29 -64 -24 -17
6 -14 10 22 32 23 13 39 28 35 33 -5 4 0 5 9 2 10 -3 20 -1 24 4 4 8 10 7 17
0 6 -6 9 -12 6 -13z m1053 -20 c-11 -11 -52 -2 -52 11 0 4 14 6 31 3 20 -3 27
-8 21 -14z m43 12 c3 -5 -1 -10 -10 -10 -9 0 -13 5 -10 10 3 6 8 10 10 10 2 0
7 -4 10 -10z m-1090 -49 c-43 -46 -110 -89 -121 -78 -12 12 128 124 159 126 5
1 -13 -21 -38 -48z m31 -19 c-16 -15 -25 -21 -21 -13 12 21 39 48 44 44 3 -2
-8 -16 -23 -31z m749 18 c-3 -5 -16 -10 -28 -10 -18 0 -19 2 -7 10 20 13 43
13 35 0z m45 -30 c12 -8 9 -10 -12 -10 -16 0 -28 5 -28 10 0 13 20 13 40 0z
m-160 -25 c0 -8 -9 -30 -20 -50 -20 -36 -19 -38 16 -36 12 1 34 -9 49 -22 25
-21 26 -25 14 -46 -13 -20 -12 -24 15 -47 17 -15 37 -24 47 -21 11 3 19 2 19
-3 0 -4 11 -5 23 -3 14 3 31 -2 41 -12 17 -17 13 -40 -5 -29 -6 3 -17 -2 -24
-12 -8 -11 -15 -15 -15 -11 0 5 -13 -1 -29 -12 -15 -11 -31 -18 -35 -14 -3 3
-6 1 -6 -5 0 -7 -7 -12 -15 -12 -9 0 -18 -7 -21 -15 -4 -8 -9 -13 -13 -10 -4
2 -8 -2 -8 -9 0 -8 5 -12 11 -10 16 6 53 -22 43 -32 -4 -5 -12 -2 -17 6 -6 8
-10 11 -10 5 0 -5 -10 -11 -22 -11 -13 -1 -37 -6 -54 -12 -24 -7 -31 -7 -31 4
0 7 5 12 10 11 20 -4 17 22 -6 47 -21 22 -26 24 -31 10 -3 -8 -1 -24 4 -34 9
-16 8 -18 -5 -14 -14 6 -15 29 -6 83 1 2 9 -3 19 -11 32 -28 41 -28 66 -3 14
14 26 29 26 33 0 10 -31 55 -44 64 -14 9 -38 -12 -32 -29 7 -18 -5 -48 -13
-34 -4 6 -19 12 -34 13 -26 2 -26 3 -20 63 6 66 30 122 66 155 19 19 20 23 7
33 -23 18 -13 47 16 47 14 0 24 -6 24 -15z m488 -49 c-20 -16 -23 -16 -26 -3
-2 9 2 26 9 38 11 22 12 22 26 3 12 -17 11 -21 -9 -38z m-1075 -47 c-27 -41
-56 -73 -67 -75 -15 -2 -12 4 13 30 17 17 31 35 31 38 0 15 64 101 67 91 3 -7
-17 -44 -44 -84z m995 36 c2 -27 -4 -48 -22 -76 -15 -21 -29 -39 -32 -39 -3 0
-3 4 1 9 3 5 1 12 -4 15 -10 7 -26 82 -22 106 4 24 31 39 54 31 16 -6 23 -18
25 -46z m-541 21 c19 5 24 3 21 -7 -3 -8 -14 -13 -25 -11 -19 3 -30 -11 -39
-43 -1 -5 -7 -21 -13 -35 -10 -23 -11 -22 -6 12 6 40 -8 59 -23 31 -5 -10 -12
-35 -16 -55 -4 -21 -12 -40 -18 -44 -7 -5 -9 1 -5 17 19 85 19 89 -1 89 -16 0
-27 -18 -53 -91 -18 -50 -40 -100 -49 -112 -20 -24 -44 -14 -37 14 8 30 -8 22
-28 -14 -23 -43 -53 -45 -46 -3 1 5 -8 6 -19 3 -27 -7 -35 13 -21 54 13 38 5
52 -15 25 -23 -32 -16 -5 16 59 28 57 41 64 20 11 -11 -29 2 -43 20 -21 7 8
17 12 22 9 5 -3 24 -8 41 -11 18 -3 33 -6 35 -8 2 -2 -4 -17 -13 -35 -20 -38
-16 -44 20 -30 15 6 25 13 22 16 -3 3 6 29 19 57 13 29 24 57 24 64 0 23 -35
6 -50 -25 -19 -40 -28 -41 -22 -2 6 39 54 62 130 64 42 1 56 6 65 21 7 12 12
15 15 7 2 -7 13 -10 29 -6z m-245 -18 c4 -10 -28 -67 -47 -86 -11 -11 2 57 15
76 17 25 26 28 32 10z m893 -31 c33 -25 -8 -51 -44 -28 -16 11 -8 41 12 41 7
0 21 -6 32 -13z m-289 -36 c6 -12 9 -32 7 -45 -5 -22 -7 -23 -46 -14 -22 5
-44 11 -49 14 -14 9 15 31 34 26 14 -3 18 2 18 23 0 31 19 30 36 -4z m357 -18
c-3 -7 -9 -13 -14 -13 -5 0 -9 6 -9 13 0 8 6 14 14 14 8 0 12 -6 9 -14z m880
-20 c-7 -2 -19 -2 -25 0 -7 3 -2 5 12 5 14 0 19 -2 13 -5z m-705 -64 l-4 -34
-10 35 c-12 37 -8 58 8 42 5 -5 8 -25 6 -43z m-289 32 c52 -2 6 -16 -57 -17
-54 -2 -63 0 -50 10 10 7 32 11 50 10 18 -1 44 -3 57 -3z m232 -29 c-7 -24
-11 -27 -47 -24 -45 4 -49 7 -39 21 3 6 12 8 18 4 17 -11 57 -11 57 -1 0 5 -8
12 -17 15 -15 6 -14 7 3 13 27 10 33 4 25 -28z m842 30 c10 -1 16 -5 14 -9 -3
-5 -37 -7 -76 -5 -39 2 -69 7 -67 11 4 6 75 7 129 3z m82 -2 c3 -5 1 -10 -4
-10 -6 0 -11 5 -11 10 0 6 2 10 4 10 3 0 8 -4 11 -10z m-1050 -20 c3 -5 -3
-10 -15 -10 -12 0 -18 5 -15 10 3 6 10 10 15 10 5 0 12 -4 15 -10z m558 -29
c-2 -10 3 -25 11 -34 10 -10 12 -18 6 -22 -23 -14 -9 -35 23 -36 l32 -1 -30
-13 c-37 -16 -45 -10 -48 41 -1 21 -6 45 -10 52 -9 13 -1 32 13 32 4 0 6 -8 3
-19z m257 -1 c10 -6 11 -10 3 -10 -17 0 -16 -25 1 -39 12 -10 17 -8 25 8 6 11
9 26 6 33 -4 10 7 12 50 10 30 -2 53 -7 51 -11 -3 -4 -23 -6 -45 -4 -37 3 -41
1 -41 -21 0 -22 3 -23 34 -16 35 8 46 5 46 -13 0 -5 -10 -7 -23 -3 -29 7 -69
-3 -61 -16 4 -6 -4 -3 -18 6 -13 9 -35 13 -51 11 -27 -5 -37 8 -16 21 6 3 9
17 6 30 -4 25 8 30 33 14z m-812 -29 c24 -12 57 -24 74 -26 44 -6 90 -26 110
-48 20 -23 63 -146 53 -155 -9 -9 -22 14 -45 84 -12 34 -30 70 -40 79 -11 10
-20 15 -20 10 0 -4 -6 -3 -12 2 -7 5 -26 10 -43 12 -16 2 -38 7 -47 12 -33 18
-19 -12 27 -59 25 -24 45 -50 45 -56 0 -6 7 -24 16 -41 10 -19 15 -50 14 -85
-4 -92 0 -154 9 -163 4 -4 16 0 26 10 12 11 17 13 14 4 -8 -23 -34 -34 -63
-27 -22 5 -25 10 -16 21 21 25 -8 93 -51 122 -24 15 -36 30 -32 39 7 20 -6 84
-17 84 -6 0 -9 -3 -8 -7 4 -11 -43 -123 -51 -123 -4 0 -6 41 -5 90 2 50 -1 88
-6 85 -4 -3 -10 2 -14 10 -3 8 -10 15 -16 15 -6 0 -8 -4 -5 -10 3 -5 1 -10 -5
-10 -21 0 -4 25 19 28 15 3 33 -8 56 -34 35 -38 46 -33 24 9 -12 22 -12 22 10
3 18 -16 21 -17 21 -3 0 23 -42 51 -52 34 -5 -7 -8 -8 -8 -1 0 6 -6 11 -12 11
-7 1 -30 4 -50 7 -21 3 -38 1 -38 -4 0 -6 -6 -10 -13 -10 -19 0 -50 -36 -43
-49 3 -5 0 -15 -7 -23 -7 -7 -12 -29 -12 -48 1 -19 -3 -43 -7 -53 -6 -12 -5
-17 4 -15 15 3 15 -1 4 -61 -7 -36 -5 -47 8 -57 15 -10 14 -12 -6 -17 -12 -4
-24 -4 -27 -1 -20 19 -2 241 21 255 6 4 8 15 4 24 -7 20 11 48 26 39 5 -3 12
3 15 15 3 12 12 21 19 21 8 0 14 3 14 8 0 4 12 8 28 8 62 3 106 12 110 23 2 6
-3 12 -12 12 -18 2 -35 5 -38 9 -16 13 -139 12 -155 -2 -8 -6 -16 -8 -19 -5
-3 3 7 13 23 21 39 23 144 16 201 -13z m522 19 c0 -12 -27 -12 -55 0 -16 7
-13 9 18 9 20 1 37 -3 37 -9z m-233 -22 c-3 -8 -6 -5 -6 6 -1 11 2 17 5 13 3
-3 4 -12 1 -19z m-212 2 c3 -5 1 -10 -4 -10 -6 0 -11 5 -11 10 0 6 2 10 4 10
3 0 8 -4 11 -10z m185 -6 c0 -2 -7 -4 -15 -4 -8 0 -15 4 -15 10 0 5 7 7 15 4
8 -4 15 -8 15 -10z m397 -1 c-4 -3 -1 -13 6 -22 11 -14 10 -14 -5 -2 -21 15
-23 31 -6 31 6 0 8 -3 5 -7z m-859 -35 c-20 -18 -38 -40 -41 -48 -4 -11 -6
-10 -6 4 -1 23 46 76 67 76 8 0 0 -14 -20 -32z m484 -54 c-3 -66 -19 -132 -22
-89 -1 11 -3 32 -5 48 -2 15 1 27 7 27 7 0 7 4 0 13 -7 8 -7 18 -2 27 5 8 6
18 4 22 -7 11 6 31 14 23 4 -3 5 -36 4 -71z m-569 60 c3 -4 -1 -16 -8 -28 -11
-17 -26 -23 -62 -25 -25 -1 -49 -3 -52 -4 -3 -1 -7 2 -9 8 -1 5 9 11 23 12 14
1 38 11 53 22 28 21 44 25 55 15z m1393 -2 c16 -10 14 -120 -3 -134 -22 -18
-29 1 -11 32 14 24 14 32 4 42 -19 20 -29 68 -14 68 7 0 18 -4 24 -8z m-46
-14 c0 -4 -7 -8 -16 -8 -8 0 -12 -4 -9 -10 3 -5 2 -10 -3 -10 -14 0 -21 11
-16 25 6 14 44 17 44 3z m-1760 -50 c0 -16 -5 -28 -11 -28 -6 0 -8 9 -3 22 6
19 4 19 -20 -5 -15 -15 -39 -30 -54 -33 -15 -4 -29 -10 -32 -14 -9 -13 -53
-23 -46 -11 4 6 11 11 17 11 5 0 18 9 29 20 12 12 25 18 30 15 6 -4 10 -1 10
5 0 6 4 9 9 6 5 -4 19 10 32 30 24 39 39 32 39 -18z m-135 23 c3 -5 -11 -26
-30 -47 -19 -20 -35 -34 -35 -30 0 4 -12 -4 -27 -18 -15 -14 -29 -23 -31 -21
-4 4 32 37 77 72 14 11 14 12 -5 13 -38 0 -36 15 3 27 21 6 39 12 40 12 1 1 4
-3 8 -8z m1695 -12 c0 -14 -4 -18 -12 -12 -7 4 -22 6 -33 4 l-20 -3 20 16 c28
21 45 20 45 -5z m78 -27 c1 -36 -17 -92 -29 -92 -6 0 -7 9 -2 23 4 12 7 41 6
64 -2 31 1 41 11 37 8 -3 14 -17 14 -32z m-363 -11 c3 -5 1 -12 -5 -16 -5 -3
-10 1 -10 9 0 18 6 21 15 7z m39 -3 c-3 -4 -9 -8 -15 -8 -5 0 -9 4 -9 8 0 5 7
9 15 9 8 0 12 -4 9 -9z m256 -31 c18 -21 20 -26 7 -21 -13 5 -17 1 -17 -19 0
-14 7 -27 15 -31 17 -6 21 -27 4 -23 -6 1 -14 -4 -16 -10 -3 -8 3 -13 14 -13
14 0 15 -2 4 -9 -7 -5 -10 -14 -6 -21 5 -8 12 -7 25 5 11 10 20 12 24 7 3 -6
14 -9 24 -7 26 4 52 -13 45 -31 -5 -13 -8 -13 -24 1 -12 12 -29 15 -53 12 -48
-6 -69 11 -72 61 -1 22 -4 44 -8 50 -3 6 -1 14 4 17 7 4 8 19 4 38 -3 18 -5
30 -3 27 2 -3 15 -18 29 -33z m170 -17 c0 -21 -5 -42 -11 -45 -7 -5 -9 7 -6
34 2 23 0 41 -5 41 -5 0 -6 5 -3 10 12 20 25 -1 25 -40z m-360 12 c0 -10 -3
-21 -6 -25 -9 -9 -36 21 -29 33 10 17 35 11 35 -8z m140 14 c0 -3 -4 -8 -10
-11 -5 -3 -10 -1 -10 4 0 6 5 11 10 11 6 0 10 -2 10 -4z m-1300 -17 c0 -5 7
-9 15 -9 8 0 15 -6 15 -14 0 -21 -17 -29 -24 -11 -3 8 -13 14 -23 13 -10 0
-27 0 -38 1 -18 1 -18 3 -4 14 20 15 59 19 59 6z m1110 -5 c0 -8 -4 -12 -10
-9 -5 3 -10 2 -10 -2 0 -5 -21 -9 -47 -10 l-48 -1 45 10 c25 5 49 14 55 19 13
12 15 11 15 -7z m-747 -23 c4 -18 -16 -55 -26 -45 -3 3 -15 1 -26 -6 -28 -14
-27 1 1 44 23 35 43 38 51 7z m-863 2 c-1 -14 -30 -47 -36 -41 -3 4 3 15 13
26 21 23 23 25 23 15z m121 -14 c8 -15 8 -19 0 -15 -6 4 -11 2 -11 -3 0 -6
-11 -11 -25 -11 -14 0 -25 -5 -25 -10 0 -6 -7 -6 -19 2 -19 11 -18 12 2 29 12
9 31 19 42 22 11 2 21 5 22 6 1 0 7 -9 14 -20z m533 4 c4 -10 4 -15 1 -11 -4
3 -15 -2 -25 -12 -18 -18 -20 -26 -21 -80 0 -29 -17 -52 -32 -43 -5 3 -7 1 -4
-5 9 -13 -2 -44 -13 -37 -11 7 -2 58 21 124 10 30 20 55 21 56 4 3 42 24 44
25 1 0 5 -8 8 -17z m664 5 c7 -7 12 -23 12 -36 0 -14 9 -39 20 -56 25 -41 20
-80 -13 -106 -14 -11 -27 -32 -29 -47 -2 -15 -9 -28 -17 -31 -9 -3 -11 2 -6
17 3 12 3 21 -2 20 -24 -4 -43 3 -43 16 0 14 33 34 69 41 8 1 21 9 29 18 13
13 11 19 -22 53 -20 21 -34 44 -31 51 3 7 0 10 -5 7 -14 -9 -12 39 2 53 7 7
15 12 18 12 3 0 11 -5 18 -12z m797 -77 c2 -33 6 -65 10 -71 3 -5 1 -18 -5
-27 -11 -17 -11 -17 -6 0 7 22 -20 23 -28 1 -7 -18 -19 -12 -22 10 -1 8 7 16
17 19 21 6 26 23 7 24 -51 4 -68 9 -64 19 3 7 -2 18 -10 25 -13 10 -12 14 2
30 10 11 30 19 45 19 15 0 31 5 34 11 12 18 16 3 20 -60z m45 39 c0 -5 -4 -10
-10 -10 -5 0 -10 5 -10 10 0 6 5 10 10 10 6 0 10 -4 10 -10z m-609 -14 c-7 -8
-21 -12 -31 -9 -27 7 -15 23 17 23 21 0 23 -3 14 -14z m384 4 c7 -12 -2 -12
-30 0 -19 8 -19 9 2 9 12 1 25 -3 28 -9z m-1932 -20 c3 -11 1 -23 -4 -26 -5
-3 -9 6 -9 20 0 31 6 34 13 6z m1657 10 c0 -5 -4 -10 -10 -10 -5 0 -10 5 -10
10 0 6 5 10 10 10 6 0 10 -4 10 -10z m-1680 -19 c0 -12 -12 -25 -30 -33 -16
-7 -30 -16 -30 -19 0 -6 -24 -15 -65 -25 -5 -1 -17 -3 -25 -5 -8 -2 -18 -8
-21 -13 -4 -4 -9 -3 -13 3 -6 9 41 41 62 41 6 0 33 16 62 35 29 19 54 35 56
35 2 0 4 -9 4 -19z m2554 -82 c1 -51 5 -100 9 -106 5 -8 4 -13 -2 -13 -6 0 -9
-19 -7 -43 3 -51 -9 -91 -25 -81 -6 3 -7 9 -2 13 7 5 9 131 3 201 -1 8 1 27 3
43 2 15 0 30 -4 33 -5 3 -5 13 1 23 5 10 6 22 2 26 -4 4 -1 6 7 3 11 -3 15
-26 15 -99z m-2018 54 c-3 -21 -5 -46 -6 -57 0 -15 -3 -16 -15 -6 -16 13 -21
60 -6 60 5 0 11 9 14 20 9 35 19 22 13 -17z m1109 16 c-3 -8 -14 -20 -25 -27
-17 -10 -20 -10 -20 3 0 8 7 15 15 15 9 0 18 7 22 15 3 9 7 14 9 12 3 -2 2
-11 -1 -18z m-784 -11 c-6 -16 -4 -27 8 -36 9 -7 10 -11 4 -7 -7 3 -13 1 -13
-4 0 -6 -14 -11 -30 -11 -29 0 -30 2 -19 22 10 18 47 56 56 58 1 0 -1 -10 -6
-22z m944 -17 c-2 -5 -13 -11 -24 -14 -23 -6 -39 22 -19 34 14 9 51 -8 43 -20z
m500 -23 c8 -17 12 -34 9 -39 -3 -5 0 -9 5 -9 6 0 11 5 11 10 0 6 5 10 11 10
5 0 7 -4 4 -10 -3 -5 -2 -10 3 -10 5 0 14 -24 20 -52 9 -46 8 -50 -4 -33 -19
25 -22 5 -7 -50 11 -38 9 -140 -2 -180 -6 -22 -12 -44 -13 -50 -1 -12 -22 -20
-22 -8 0 5 5 14 12 21 9 9 9 12 0 12 -7 0 -12 -5 -12 -12 0 -6 -3 -8 -7 -5 -9
10 -34 -53 -26 -66 4 -7 0 -8 -12 -3 -15 6 -16 4 -5 -10 11 -12 11 -17 1 -23
-7 -5 -12 -11 -11 -15 3 -11 -22 -66 -30 -66 -4 0 -10 -11 -14 -24 -3 -12 -27
-46 -53 -73 -64 -67 -82 -90 -77 -97 2 -3 1 -4 -2 -1 -12 8 -46 -17 -40 -30 6
-17 -24 -28 -84 -30 -25 0 -50 -4 -56 -7 -16 -10 -52 2 -59 19 -8 22 0 27 48
29 23 1 51 4 62 7 28 7 119 51 123 59 2 4 19 17 38 28 25 16 34 29 34 48 1 24
29 89 30 68 0 -5 7 -3 16 4 22 19 45 79 48 125 1 22 4 45 7 50 7 14 3 183 -5
219 -4 16 -8 49 -10 74 -2 24 -9 47 -15 51 -22 14 -16 72 9 91 30 23 56 15 75
-22z m315 32 c0 -5 -4 -10 -10 -10 -5 0 -10 5 -10 10 0 6 5 10 10 10 6 0 10
-4 10 -10z m-1635 -106 c8 -76 -10 -97 -20 -24 -8 60 -28 62 -35 4 -3 -24 -10
-38 -18 -36 -6 1 -12 -2 -12 -8 0 -5 5 -10 10 -10 6 0 10 -9 10 -20 0 -20 3
-21 55 -24 27 -1 31 3 39 37 9 37 19 46 31 27 8 -12 -5 -61 -15 -55 -4 3 -10
-4 -13 -15 -3 -11 -19 -25 -36 -31 -17 -6 -31 -15 -31 -20 0 -10 49 -34 62
-31 4 1 10 -15 13 -36 3 -20 9 -48 12 -62 4 -14 7 -28 7 -32 1 -3 4 -10 9 -14
4 -4 7 -15 7 -24 0 -22 46 -108 72 -137 21 -22 35 -93 18 -93 -5 0 -16 -8 -25
-17 -14 -14 -22 -15 -48 -5 -24 9 -33 9 -39 -1 -6 -9 -8 -9 -8 1 0 7 -5 10
-11 7 -5 -4 -19 1 -30 11 -10 9 -19 13 -19 8 0 -5 -7 2 -16 14 -13 19 -14 31
-6 63 8 32 7 43 -5 55 -13 13 -14 23 -5 62 6 29 7 51 1 56 -12 13 -12 46 1 46
12 0 0 63 -14 72 -6 4 -16 6 -23 4 -8 -3 -7 5 3 29 16 40 18 59 4 50 -10 -6
-17 15 -23 70 l-4 30 -8 -32 c-4 -19 -12 -30 -18 -26 -6 3 -7 1 -3 -5 4 -6 0
-38 -7 -71 -13 -56 -13 -60 5 -64 10 -3 18 0 18 6 0 8 3 8 11 0 7 -7 8 -22 1
-44 -9 -35 -8 -113 3 -159 3 -14 8 -41 11 -60 l5 -35 -20 44 c-12 24 -22 68
-24 97 -1 30 -5 54 -9 54 -5 0 -8 -8 -8 -18 0 -10 -6 -24 -12 -30 -9 -9 -10
-17 -2 -30 6 -9 8 -28 4 -42 l-6 -25 -13 25 c-19 35 -20 36 -36 14 -13 -18
-14 -18 -12 6 0 14 5 28 10 31 5 4 20 39 33 79 17 53 21 77 13 86 -6 7 -8 22
-4 33 7 22 11 40 30 136 17 86 24 105 39 105 6 0 27 13 46 29 41 34 45 30 55
-55z m272 37 c-14 -16 -58 -34 -66 -26 -3 3 -1 9 5 13 5 4 18 20 28 35 17 27
18 28 31 10 10 -13 11 -21 2 -32z m751 10 c-11 -19 -38 -18 -38 1 0 5 5 6 10
3 6 -3 13 1 16 9 3 9 10 13 15 10 5 -2 3 -13 -3 -23z m476 -33 c0 -79 -19 -88
-20 -10 0 59 2 72 14 72 4 0 7 -28 6 -62z m-923 20 c21 -21 39 -31 59 -30 23
0 31 -5 39 -29 6 -18 6 -27 1 -24 -6 4 -10 4 -10 1 0 -2 -3 -12 -7 -22 -4 -12
-3 -15 6 -9 7 4 24 2 37 -6 33 -17 11 -30 -27 -15 -26 9 -29 14 -23 39 6 28 5
29 -27 24 -19 -3 -40 -6 -48 -8 -7 -2 -16 2 -18 9 -3 7 4 12 17 12 15 0 20 5
18 17 -2 10 -10 18 -18 19 -36 2 -40 5 -40 29 0 32 6 32 41 -7z m249 14 c0 -4
-5 -13 -12 -20 -15 -15 -7 -22 28 -25 15 -1 29 -8 32 -15 4 -14 -7 -15 -27 -3
-9 6 -22 4 -37 -5 -17 -12 -24 -12 -30 -3 -4 8 -3 9 4 5 8 -5 12 1 12 18 0 14
-5 28 -10 31 -6 4 -8 11 -5 16 7 11 45 12 45 1z m136 -6 c-2 -6 8 -23 22 -38
31 -33 24 -44 -20 -31 -27 7 -33 14 -33 36 1 30 -14 38 -58 33 -15 -2 -30 1
-33 5 -3 5 24 8 61 7 42 -1 64 -5 61 -12z m-304 -10 c7 4 8 2 4 -4 -4 -6 -13
-9 -21 -6 -8 4 -12 11 -8 17 5 8 8 7 11 -1 2 -7 9 -9 14 -6z m1038 -11 c0 -11
-29 -11 -33 -1 -4 10 1 12 14 9 10 -3 19 -7 19 -8z m25 5 c3 -5 1 -10 -4 -10
-6 0 -11 5 -11 10 0 6 2 10 4 10 3 0 8 -4 11 -10z m-560 -40 c3 -6 -4 -10 -17
-10 -18 0 -20 2 -8 10 19 12 18 12 25 0z m-1447 -15 c-10 -10 -56 -16 -62 -7
-2 4 12 9 32 10 20 2 34 0 30 -3z m1407 -29 c7 -2 16 2 19 10 8 21 22 17 23
-6 2 -19 -7 -24 -36 -21 -7 2 -10 -2 -6 -9 5 -9 0 -8 -16 1 -13 7 -26 11 -29
10 -18 -9 -30 -26 -30 -42 0 -23 16 -25 28 -3 7 13 16 15 38 9 16 -5 33 -9 38
-9 13 -1 16 -32 2 -34 -6 -1 -22 -3 -36 -5 -14 -2 -29 0 -35 4 -5 4 -26 9 -46
12 -20 2 -42 8 -48 11 -7 5 -9 1 -5 -8 4 -11 0 -16 -10 -16 -31 0 -7 39 27 44
20 3 48 32 39 41 -4 4 -2 6 3 5 27 -6 47 1 42 14 -3 8 -1 17 6 19 7 2 13 -2
15 -9 2 -7 9 -15 17 -18z m-871 -3 c-1 -16 -2 -40 -3 -55 0 -16 -6 -28 -11
-28 -9 0 -6 61 6 98 6 20 10 14 8 -15z m1476 0 c0 -19 -3 -24 -10 -17 -6 6 -8
18 -4 27 9 24 14 21 14 -10z m-2004 -5 c13 -10 7 -48 -8 -48 -5 0 -6 9 -3 20
6 18 2 20 -32 21 -28 0 -33 2 -18 8 26 10 48 10 61 -1z m425 -5 c14 -14 3
-105 -17 -130 -12 -17 -13 -16 -14 7 0 14 5 41 10 60 9 30 7 37 -10 50 -12 9
-18 19 -15 22 9 9 33 4 46 -9z m451 -15 c-3 -11 -10 -17 -18 -14 -8 3 -14 0
-14 -8 0 -15 4 -15 90 -19 80 -3 95 -20 20 -23 -68 -2 -65 -1 -50 -19 7 -9 20
-13 28 -10 17 6 44 -13 36 -27 -3 -5 -12 -4 -20 3 -9 7 -14 8 -14 1 0 -6 -8
-9 -17 -7 -10 1 -26 -1 -35 -6 -10 -5 -18 -5 -20 1 -2 5 -14 11 -28 13 -22 4
-25 9 -23 43 2 21 8 41 13 44 6 4 8 14 5 22 -4 11 0 18 12 20 34 7 40 5 35
-14z m339 13 c-8 -5 -20 -7 -28 -4 -21 8 -15 13 15 13 20 0 23 -3 13 -9z m882
-118 c-6 -14 -23 -18 -24 -5 0 4 -2 15 -4 24 -2 10 1 20 6 24 5 3 10 17 10 32
1 17 4 11 9 -18 4 -25 5 -51 3 -57z m-328 50 c-2 -16 -4 -30 -4 -33 -1 -3 -11
-11 -23 -19 l-23 -14 20 22 c11 13 20 28 21 34 3 30 4 37 8 37 3 0 3 -12 1
-27z m-687 -1 c2 -7 -1 -12 -8 -12 -6 0 -8 -6 -4 -12 4 -7 -1 -5 -12 4 -15 13
-23 15 -32 6 -8 -8 -11 -6 -9 10 1 16 7 20 31 18 16 -1 32 -8 34 -14z m947
-44 c3 -18 7 -58 9 -88 2 -30 7 -67 11 -83 6 -21 4 -26 -7 -22 -10 4 -14 19
-14 45 1 22 -1 40 -5 40 -3 0 -5 10 -5 23 1 12 0 27 -3 32 -8 15 -7 85 1 85 4
0 10 -15 13 -32z m-1511 -40 c-3 -4 -9 -8 -14 -8 -7 0 -7 16 0 65 1 6 6 -3 10
-19 5 -16 7 -33 4 -38z m786 44 c14 -5 28 -8 31 -6 4 2 27 6 52 8 32 4 49 1
58 -10 23 -27 16 -28 -181 -20 -63 3 -122 7 -130 8 -21 5 -19 24 3 21 9 -2 17
1 17 5 0 11 120 6 150 -6z m-693 -52 c11 -22 10 -27 -8 -43 -21 -17 -22 -17
-36 0 -9 12 -12 13 -8 3 4 -8 -3 -4 -14 10 l-21 25 22 18 c27 23 49 18 65 -13z
m1279 -31 c1 -5 3 -10 4 -11 7 -8 6 -58 -2 -58 -4 0 -8 8 -9 18 0 9 -3 30 -5
47 -3 16 -2 26 3 21 4 -4 9 -12 9 -17z m-144 -11 c3 -7 -2 -19 -9 -26 -11 -11
-11 -17 -1 -29 10 -13 13 -12 19 5 4 11 11 22 16 25 10 7 10 -34 -1 -51 -4 -7
-4 -17 -1 -23 4 -5 0 -18 -9 -28 -9 -10 -16 -23 -14 -29 2 -5 -1 -10 -7 -11
-5 -1 -10 2 -11 7 0 4 -6 20 -13 37 -7 16 -10 37 -8 47 3 10 1 20 -4 24 -10 6
17 64 30 64 5 0 11 -6 13 -12z m-684 -11 c6 -5 12 -21 12 -38 0 -27 -8 -34
-37 -30 -7 1 -14 -6 -14 -16 -1 -10 -2 -22 -4 -28 -1 -5 -3 -16 -3 -23 -1 -7
-7 -10 -13 -7 -5 4 -8 12 -6 18 2 7 -2 27 -9 46 -18 44 -18 68 2 79 19 10 54
10 72 -1z m-531 -92 c-6 -19 -16 -35 -23 -35 -10 0 -10 7 2 35 15 38 13 41
-17 25 -14 -8 -19 -7 -19 3 0 8 10 19 23 24 33 16 48 -7 34 -52z m1363 25 c0
-16 -23 -60 -32 -60 -12 0 -10 18 2 22 6 2 12 13 13 26 1 21 17 33 17 12z
m-2290 -10 c0 -5 -4 -10 -10 -10 -5 0 -10 5 -10 10 0 6 5 10 10 10 6 0 10 -4
10 -10z m-46 -46 c4 -9 4 -19 2 -21 -8 -8 -26 8 -26 23 0 19 16 18 24 -2z
m1122 -60 c-1 -48 3 -85 11 -101 16 -31 17 -56 1 -28 -6 11 -15 22 -19 25 -11
7 -28 86 -24 108 12 60 16 72 25 72 5 0 8 -33 6 -76z m1371 46 c-1 -11 -5 -20
-9 -20 -4 0 -5 -7 -2 -15 4 -8 1 -15 -6 -15 -7 0 -10 -7 -6 -15 3 -8 1 -15 -4
-15 -13 0 -13 47 0 55 6 3 10 17 10 31 0 14 4 23 9 19 6 -3 9 -14 8 -25z
m-2327 4 c28 -4 59 -13 77 -22 10 -5 37 -8 61 -7 23 2 42 -1 42 -6 0 -5 5 -9
11 -9 8 0 8 4 0 14 -21 25 6 27 55 4 58 -28 66 -46 25 -54 -37 -8 -42 -34 -6
-34 14 0 25 -4 25 -8 0 -5 17 -7 39 -6 52 2 71 -10 42 -27 -11 -8 -21 -19 -21
-26 0 -15 -36 -18 -45 -3 -3 5 -44 8 -93 6 -78 -3 -89 -1 -105 18 -10 12 -15
14 -11 6 7 -13 6 -13 -10 0 -10 8 -22 23 -26 35 -13 35 -55 51 -100 38 -37
-10 -40 -9 -40 11 0 15 -3 17 -9 8 -7 -11 -9 -11 -14 0 -3 8 4 20 15 27 11 7
17 15 14 19 -9 9 37 32 49 24 5 -3 16 -7 25 -8z m1377 -16 c-3 -7 -5 -2 -5 12
0 14 2 19 5 13 2 -7 2 -19 0 -25z m-603 0 c-3 -4 0 -8 5 -8 6 0 11 -5 11 -11
0 -5 -4 -7 -10 -4 -5 3 -10 -1 -10 -9 0 -8 4 -17 9 -20 13 -9 34 -151 27 -188
-6 -32 -35 -68 -56 -68 -16 0 -12 -20 5 -26 8 -4 15 -18 15 -34 0 -16 -7 -35
-15 -44 -8 -8 -15 -21 -15 -29 0 -8 -7 -18 -17 -21 -30 -12 -83 -17 -83 -9 0
4 -29 9 -65 10 -36 0 -65 -2 -65 -6 0 -4 19 -14 43 -21 64 -19 86 -31 81 -45
-3 -7 -1 -16 5 -20 6 -3 11 -12 11 -18 -1 -7 -10 -1 -20 12 -11 13 -20 18 -20
13 0 -6 5 -14 11 -18 20 -12 -8 -26 -54 -26 -47 -1 -82 16 -70 35 3 5 1 7 -4
4 -6 -4 -16 0 -23 7 -11 14 -65 31 -73 24 -2 -2 -10 2 -18 8 -13 11 -118 30
-149 27 -8 -1 -23 4 -35 10 -11 6 -24 12 -30 13 -55 9 -132 27 -140 33 -5 3
-43 6 -82 6 -61 0 -73 3 -73 16 0 18 49 32 87 25 13 -3 25 -1 28 4 3 5 19 2
35 -7 16 -8 40 -13 52 -11 15 2 32 -6 47 -22 14 -14 26 -20 28 -14 3 8 16 7
46 -3 48 -17 189 -23 184 -8 -5 13 -97 77 -97 67 0 -4 -9 -13 -19 -19 -32 -20
-119 19 -134 60 -5 13 -1 17 21 18 15 0 36 3 47 5 46 11 85 3 85 -18 0 -23 19
-33 26 -14 3 9 10 13 15 10 5 -3 9 -1 9 3 0 5 11 10 25 11 14 1 25 -4 25 -10
0 -8 3 -9 10 -2 7 7 5 24 -5 54 -8 24 -14 44 -13 45 33 27 65 22 33 -5 -16
-14 -21 -45 -5 -35 6 3 7 -1 4 -9 -4 -10 -1 -16 7 -16 7 0 10 -3 6 -6 -8 -8
62 -74 79 -74 7 0 14 -4 16 -9 2 -5 22 -12 45 -14 23 -3 46 -8 52 -11 5 -4 12
-2 15 2 3 5 -5 14 -18 20 -21 9 -26 29 -18 76 1 5 16 6 32 3 36 -8 37 -5 5 29
-29 32 -31 40 -9 48 15 6 15 4 3 -11 -12 -15 -12 -16 4 -10 11 4 23 4 29 1 6
-4 26 -8 45 -9 49 -3 77 34 69 93 -3 25 -2 41 3 37 5 -3 13 -1 16 5 4 6 1 9
-7 8 -8 -2 -12 5 -11 17 1 11 -2 22 -7 25 -8 5 -13 39 -11 71 1 9 8 16 16 16
8 0 12 -4 9 -9z m1391 -58 c-14 -28 -32 -53 -40 -57 -8 -3 -15 -10 -15 -17 -1
-18 -49 -68 -62 -64 -7 3 -4 12 10 26 12 12 21 25 21 28 -1 6 68 103 82 114 3
3 9 14 13 25 5 11 10 15 13 8 2 -6 -8 -34 -22 -63z m205 44 c0 -8 -5 -12 -10
-9 -6 4 -8 11 -5 16 9 14 15 11 15 -7z m-447 -39 c-12 -32 -23 -14 -14 23 1 2
5 1 11 -3 5 -3 7 -12 3 -20z m-2211 -11 c-7 -12 -11 -13 -17 -4 -4 7 -2 16 6
21 18 11 23 4 11 -17z m648 10 c0 -8 -4 -12 -10 -9 -5 3 -10 10 -10 16 0 5 5
9 10 9 6 0 10 -7 10 -16z m1923 -61 c-23 -50 -52 -93 -64 -93 -13 0 54 129 68
129 9 1 8 -9 -4 -36z m-308 -5 c-7 -33 -34 -74 -80 -124 -14 -15 -39 -46 -57
-70 -18 -24 -38 -42 -45 -39 -17 6 -26 -12 -11 -19 10 -5 10 -7 1 -12 -7 -3
-13 -12 -13 -19 0 -7 -4 -15 -9 -17 -6 -1 -19 -23 -30 -48 l-20 -45 5 53 c5
65 16 87 72 146 23 24 42 50 42 55 0 15 20 14 20 -1 1 -7 19 7 41 31 21 24 37
46 34 49 -3 3 5 16 17 29 12 13 18 23 14 23 -4 0 -2 9 4 20 16 30 22 24 15
-12z m-1509 -34 c-14 -26 -15 -27 -16 -7 0 12 5 25 10 28 6 4 7 12 4 18 -5 9
-4 9 5 1 10 -9 10 -18 -3 -40z m-821 -5 c2 -19 7 -43 9 -54 3 -11 5 -23 5 -26
1 -3 12 -11 26 -17 14 -6 25 -19 25 -28 0 -16 -1 -16 -19 0 -21 19 -48 12 -56
-15 -4 -10 -12 -19 -20 -19 -20 0 -75 -50 -86 -77 -5 -14 -12 -46 -15 -71 -5
-40 -2 -51 15 -66 11 -10 18 -23 14 -29 -3 -6 -1 -7 5 -3 6 3 16 -2 21 -13 11
-20 51 -35 91 -33 14 1 48 3 75 4 28 2 55 7 62 11 6 4 14 3 18 -3 9 -14 25
-12 23 3 -2 6 3 11 10 9 6 -1 12 3 12 10 0 6 3 8 6 5 4 -3 16 0 26 8 11 7 27
11 34 8 8 -3 14 0 14 6 0 6 7 11 15 11 8 0 15 -4 15 -10 0 -5 -6 -10 -13 -10
-8 0 -24 -11 -36 -24 -21 -22 -21 -24 -3 -28 10 -3 38 -3 61 -1 29 3 41 1 36
-6 -3 -6 -2 -11 4 -11 5 0 11 5 13 10 2 6 37 11 78 12 41 0 79 3 84 6 14 8
-17 22 -51 22 -18 0 -33 5 -33 10 0 6 -6 10 -12 9 -15 -2 -78 23 -78 31 0 7
143 -12 150 -19 3 -3 21 -7 40 -8 19 -1 49 -4 65 -7 17 -3 49 -8 72 -10 22 -2
45 -6 50 -9 25 -16 116 -27 223 -29 65 -1 160 19 160 34 0 4 7 8 15 8 8 0 15
5 15 10 0 6 6 10 14 10 8 0 16 7 20 15 3 8 12 15 21 15 19 0 19 -9 -1 -31 -14
-16 -14 -18 5 -24 28 -9 63 3 54 18 -4 8 -1 7 9 -1 10 -8 19 -9 22 -3 4 5 14
10 24 9 9 0 30 3 45 6 17 4 26 3 23 -3 -4 -5 -1 -13 5 -17 7 -4 10 -3 6 2 -10
17 42 32 108 31 35 0 68 3 72 7 4 4 0 4 -10 0 -24 -9 -21 8 3 24 12 7 18 18
15 25 -4 7 5 -1 19 -16 14 -15 26 -24 26 -19 0 13 54 10 71 -4 8 -6 25 -10 39
-7 36 6 70 -5 70 -22 0 -9 10 -15 25 -15 19 0 25 -5 25 -21 0 -11 4 -18 10
-14 5 3 7 11 4 18 -6 16 99 15 119 -1 27 -23 83 -40 117 -36 34 3 52 6 114 20
46 10 86 11 86 2 0 -4 -4 -8 -10 -8 -5 0 -10 -5 -10 -11 0 -5 5 -7 11 -3 6 3
75 8 153 10 77 2 146 5 153 6 16 2 6 18 -12 18 -7 0 -15 6 -18 13 -3 9 32 12
162 11 91 0 182 -4 201 -8 58 -13 101 -12 112 1 13 16 18 55 18 163 1 97 -2
118 -27 168 -16 32 -23 37 -58 40 -26 2 -47 -3 -60 -13 -17 -14 -17 -16 -2
-11 9 3 17 1 17 -5 0 -6 -8 -9 -17 -7 -19 3 -27 58 -10 58 5 0 7 7 3 15 -7 19
35 31 61 17 10 -5 24 -7 32 -4 8 2 11 0 8 -6 -4 -5 2 -12 13 -15 11 -3 20 0
20 6 0 6 7 1 16 -11 8 -12 19 -20 24 -17 18 11 40 -9 46 -43 4 -21 10 -42 15
-47 4 -6 14 -39 23 -75 9 -36 18 -74 21 -85 10 -34 -29 -70 -71 -66 -33 2 -34
2 -24 -23 6 -17 6 -27 -1 -32 -8 -4 -7 -9 1 -14 9 -6 10 -12 1 -26 -9 -17 -10
-17 -11 -1 0 9 -7 17 -16 17 -8 0 -13 -4 -9 -9 3 -5 1 -12 -5 -16 -5 -3 -10
-15 -10 -26 0 -14 -7 -19 -27 -20 -16 0 -509 -2 -1098 -5 -1423 -6 -1418 -6
-1360 -14 l50 -6 -66 -4 c-66 -5 -327 3 -299 9 25 5 -52 20 -105 21 -140 1
-180 5 -200 23 -11 10 -30 20 -42 23 -26 7 -57 50 -47 67 4 7 3 9 -1 4 -5 -4
-19 3 -32 15 -13 12 -23 17 -23 11 0 -5 -11 -15 -25 -21 -23 -11 -25 -9 -25
11 0 33 37 170 57 212 10 21 24 35 35 35 10 0 18 4 18 8 0 4 24 8 53 8 l52 0
-3 56 c-5 80 12 107 23 37z m162 11 c7 -14 12 -20 13 -14 0 7 17 12 40 12 22
0 44 3 49 7 6 3 14 -3 20 -12 6 -11 11 -13 11 -5 0 10 5 10 20 2 11 -6 20 -8
20 -5 0 4 6 3 13 -2 6 -4 17 -8 22 -8 35 -2 95 -18 95 -26 0 -5 14 -7 30 -5
17 2 30 0 30 -4 0 -4 8 -7 18 -7 54 0 80 -4 96 -16 14 -11 10 -12 -34 -12 -27
0 -50 3 -50 6 0 4 -19 9 -42 12 -58 6 -72 10 -80 22 -5 7 -10 7 -15 0 -9 -11
-33 -13 -48 -3 -6 3 -25 5 -43 4 -17 -1 -33 2 -35 7 -3 10 -136 16 -134 6 1
-4 -2 -7 -7 -7 -5 0 -13 -6 -17 -14 -7 -11 -9 -11 -9 1 0 11 -3 11 -17 0 -13
-11 -17 -11 -20 -1 -3 6 -11 12 -19 12 -9 0 -14 7 -12 18 3 17 22 30 48 31 11
1 11 -2 2 -11 -18 -18 -14 -30 7 -19 10 6 21 8 23 5 3 -3 8 4 10 14 3 11 0 19
-8 20 -8 1 -21 3 -29 4 -8 1 -12 5 -9 10 11 17 49 3 61 -22z m1592 -4 c-7 -14
-17 -26 -22 -26 -5 0 -5 6 2 13 6 8 8 17 4 21 -4 4 -1 11 7 16 20 13 23 7 9
-24z m491 4 c-6 -11 -13 -20 -16 -20 -2 0 0 9 6 20 6 11 13 20 16 20 2 0 0 -9
-6 -20z m-70 -35 c-17 -31 -76 -78 -92 -73 -7 3 5 21 27 41 22 20 47 43 54 52
21 21 27 10 11 -20z m530 5 c0 -22 -8 -25 -30 -10 -13 9 -13 11 0 20 22 15 30
12 30 -10z m-2878 -50 c-9 -24 -44 -60 -54 -54 -12 8 -10 33 5 48 6 8 19 23
27 35 13 19 15 20 21 4 3 -10 4 -25 1 -33z m1470 3 c2 -27 8 -48 13 -48 6 0
25 -10 44 -21 l33 -21 -25 -7 c-33 -8 -54 1 -60 26 -3 11 -10 17 -16 13 -7 -4
-11 13 -11 49 0 68 18 75 22 9z m96 16 c17 -8 32 -18 32 -22 0 -5 4 -5 10 -2
5 3 23 -1 40 -10 16 -8 32 -15 35 -15 3 0 23 -5 46 -11 27 -9 39 -17 37 -28
-5 -24 -45 -25 -78 -1 -16 12 -30 19 -30 16 0 -4 -16 0 -35 8 -19 8 -35 12
-35 9 0 -3 -9 6 -21 21 -11 14 -24 24 -29 21 -12 -7 -33 22 -25 36 5 6 10 7
14 2 3 -5 21 -16 39 -24z m826 2 c3 -5 -1 -14 -8 -20 -12 -10 -13 -8 -9 8 6
23 9 25 17 12z m166 -11 c0 -5 -5 -10 -11 -10 -5 0 -7 5 -4 10 3 6 8 10 11 10
2 0 4 -4 4 -10z m-2075 -15 c28 -5 53 -10 58 -11 4 -1 14 -2 23 -3 8 0 12 -6
9 -11 -4 -6 -25 -8 -53 -4 -26 4 -55 8 -64 8 -10 0 -18 4 -18 9 0 5 -20 7 -45
5 -25 -3 -45 -2 -45 3 0 15 56 17 135 4z m571 -14 c1 -6 0 -7 -3 -1 -2 5 -9 8
-13 5 -5 -3 -11 -1 -14 4 -4 5 2 8 11 7 9 -2 18 -8 19 -15z m39 -30 c-6 -5
-25 10 -25 20 0 5 6 4 14 -3 8 -7 12 -15 11 -17z m1885 8 c0 -6 -4 -7 -10 -4
-5 3 -10 11 -10 16 0 6 5 7 10 4 6 -3 10 -11 10 -16z m-294 -7 c-3 -5 4 -18
14 -30 11 -12 20 -23 20 -25 0 -7 -65 5 -76 14 -7 5 -19 0 -33 -15 -12 -13
-32 -26 -44 -29 -12 -2 -48 -16 -79 -30 -81 -37 -81 -16 -1 29 134 75 214 110
199 86z m-2213 -17 c15 1 32 -4 37 -10 12 -14 -27 -26 -92 -30 -46 -3 -71 19
-36 31 13 4 26 8 30 9 3 0 10 3 14 8 4 4 10 4 13 -1 3 -5 18 -8 34 -7z m1420
0 c-3 -9 -8 -14 -10 -11 -3 3 -2 9 2 15 9 16 15 13 8 -4z m1230 1 c20 1 37 -2
37 -7 0 -5 3 -8 8 -6 7 2 12 -6 12 -24 0 -6 -8 -8 -19 -4 -11 3 -22 2 -25 -4
-6 -10 -20 -9 -48 4 -10 4 -25 5 -33 2 -8 -4 -17 -2 -20 3 -3 5 5 10 17 12 16
2 19 6 11 11 -7 5 -20 0 -32 -12 -14 -14 -22 -17 -27 -9 -12 18 34 48 59 39
12 -4 39 -7 60 -5z m-233 -10 c0 -7 4 -6 10 0 6 6 24 8 41 6 22 -3 27 -7 18
-13 -12 -7 -11 -11 1 -19 18 -11 21 -11 -55 -14 -89 -4 -135 18 -84 40 28 13
69 13 69 0z m-2595 -47 c37 -45 21 -50 -23 -6 -26 26 -32 37 -20 37 9 0 28
-14 43 -31z m1325 21 c0 -5 -9 -9 -20 -7 -30 5 -32 12 -5 15 14 1 25 -3 25 -8z
m1594 -5 c-4 -8 -10 -15 -15 -15 -4 0 -6 -7 -3 -15 4 -8 -1 -17 -10 -21 -10
-4 -14 -13 -11 -24 4 -14 0 -18 -19 -16 -22 1 -23 3 -10 17 8 9 11 19 7 23 -5
4 -3 7 2 6 27 -6 37 0 26 14 -10 11 -7 17 11 30 28 20 29 20 22 1z m-974 -13
c0 -5 -13 -24 -30 -42 -37 -41 -40 -24 -4 19 27 32 34 37 34 23z m-593 -44
c-3 -8 -6 -5 -6 6 -1 11 2 17 5 13 3 -3 4 -12 1 -19z m274 -4 c19 -11 -1 -20
-44 -18 -49 2 -70 10 -62 24 6 9 90 4 106 -6z m165 -9 c20 -19 5 -19 -20 0
-11 9 -14 15 -7 15 7 0 19 -7 27 -15z m1034 -16 c-12 -41 -20 -48 -20 -18 0
20 16 49 26 49 2 0 -1 -14 -6 -31z m93 10 c-6 -6 -17 -8 -24 -3 -9 5 -8 9 7
14 23 9 31 3 17 -11z m-2823 2 c0 -6 -4 -13 -10 -16 -5 -3 -10 1 -10 9 0 9 5
16 10 16 6 0 10 -4 10 -9z m-213 -37 c-3 -3 -12 -4 -19 -1 -8 3 -5 6 6 6 11 1
17 -2 13 -5z m53 -10 c0 -14 -3 -14 -15 -4 -8 7 -15 14 -15 16 0 2 7 4 15 4 8
0 15 -7 15 -16z m230 -16 c0 -4 9 -8 20 -8 11 0 20 -5 20 -11 0 -6 -7 -8 -16
-5 -9 3 -22 6 -29 6 -7 0 -15 6 -18 13 -3 8 1 14 9 14 8 0 14 -4 14 -9z m2220
6 c0 -12 -35 -33 -55 -34 -11 0 -27 5 -35 10 -13 9 -13 11 0 20 17 11 90 14
90 4z m770 -10 c0 -8 -5 -12 -10 -9 -6 4 -8 11 -5 16 9 14 15 11 15 -7z
m-3349 -37 c-8 -8 -11 -7 -11 4 0 20 13 34 18 19 3 -7 -1 -17 -7 -23z m245 25
c6 -4 9 -26 6 -50 -3 -32 -8 -42 -20 -40 -15 3 -24 47 -15 81 5 18 12 21 29 9z
m2199 -2 c3 -6 -4 -10 -17 -10 -18 0 -20 2 -8 10 19 12 18 12 25 0z m576 -7
c13 -16 12 -17 -3 -4 -10 7 -18 15 -18 17 0 8 8 3 21 -13z m102 3 c7 -18 -15
-27 -34 -15 -12 8 -12 10 1 19 20 13 27 12 33 -4z m225 -4 c8 -5 10 -16 6 -27
-5 -11 -4 -16 3 -12 6 4 17 -21 28 -61 9 -37 24 -88 32 -114 8 -26 12 -52 8
-58 -3 -5 0 -10 7 -10 9 0 9 -3 -2 -10 -8 -5 -18 -10 -21 -10 -11 0 -43 73
-44 100 0 14 -13 55 -29 92 -35 83 -29 136 12 110z m-3228 -39 c0 -5 -7 -17
-15 -27 -15 -20 -15 -20 -15 0 0 12 3 24 7 27 9 9 23 9 23 0z m2310 -43 c0 -5
-4 -10 -10 -10 -5 0 -10 5 -10 10 0 6 5 10 10 10 6 0 10 -4 10 -10z m-2543
-86 c-3 -3 -12 -4 -19 -1 -8 3 -5 6 6 6 11 1 17 -2 13 -5z m182 -10 c-6 -8
-24 -10 -46 -7 -23 4 -38 2 -43 -7 -8 -13 -14 -11 -60 15 -23 14 -18 15 67 13
71 -2 90 -5 82 -14z m41 6 c0 -5 -2 -10 -4 -10 -3 0 -8 5 -11 10 -3 6 -1 10 4
10 6 0 11 -4 11 -10z m133 -7 c-13 -2 -33 -2 -45 0 -13 2 -3 4 22 4 25 0 35
-2 23 -4z m520 0 c-7 -2 -21 -2 -30 0 -10 3 -4 5 12 5 17 0 24 -2 18 -5z m80
0 c-7 -2 -19 -2 -25 0 -7 3 -2 5 12 5 14 0 19 -2 13 -5z m370 0 c-7 -2 -19 -2
-25 0 -7 3 -2 5 12 5 14 0 19 -2 13 -5z m1847 3 c0 -9 -30 -14 -35 -6 -4 6 3
10 14 10 12 0 21 -2 21 -4z m94 -8 c3 5 17 10 31 10 13 0 22 -5 19 -10 -3 -4
-11 -8 -17 -7 -7 1 -25 -3 -40 -9 -40 -17 -50 -15 -29 6 9 10 20 14 23 9 4 -5
9 -5 13 1z m-2719 -36 c-3 -3 -11 0 -18 7 -9 10 -8 11 6 5 10 -3 15 -9 12 -12z
m-689 -15 c8 3 26 -4 38 -16 23 -22 28 -22 426 -26 221 -2 405 -7 408 -10 3
-3 2 -8 -2 -12 -8 -8 -913 -6 -926 2 -5 3 -4 20 1 37 10 36 32 56 37 33 2 -8
10 -11 18 -8z m844 19 c0 -11 -19 -15 -25 -6 -3 5 1 10 9 10 9 0 16 -2 16 -4z
m2740 -32 c0 -2 -39 -3 -87 -2 -84 1 -85 2 -28 7 57 6 115 3 115 -5z m-540 -4
c-9 -5 -109 -9 -235 -8 -170 2 -195 3 -110 8 209 10 361 10 345 0z m279 6
c-10 -10 -238 -16 -244 -6 -4 6 39 10 121 10 70 0 125 -2 123 -4z m74 -3 c-7
-2 -21 -2 -30 0 -10 3 -4 5 12 5 17 0 24 -2 18 -5z m-2307 -10 c-7 -7 -387 -5
-395 3 -2 2 87 4 199 4 112 0 200 -3 196 -7z m104 0 c0 -10 -78 -9 -87 1 -3 3
15 6 40 6 26 0 47 -3 47 -7z m137 -8 c-8 -8 -19 -10 -34 -4 -13 5 -29 6 -37 3
-8 -3 -17 -1 -20 5 -4 6 15 10 49 10 44 0 52 -3 42 -14z m83 5 c-8 -5 -12 -12
-8 -15 3 -3 214 -5 469 -5 667 3 710 2 716 -4 4 -3 4 -8 1 -12 -8 -8 -1158
-10 -1158 -2 0 4 -11 5 -24 2 -20 -3 -23 -1 -19 15 4 14 -1 21 -19 24 -14 3
-8 5 17 5 28 1 36 -1 25 -8z m47 4 c-3 -3 -12 -4 -19 -1 -8 3 -5 6 6 6 11 1
17 -2 13 -5z m46 -1 c-7 -2 -19 -2 -25 0 -7 3 -2 5 12 5 14 0 19 -2 13 -5z
m80 0 c-13 -2 -33 -2 -45 0 -13 2 -3 4 22 4 25 0 35 -2 23 -4z m415 0 c-64 -2
-172 -2 -240 0 -68 1 -15 3 117 3 132 0 187 -2 123 -3z m440 0 c-16 -2 -40 -2
-55 0 -16 2 -3 4 27 4 30 0 43 -2 28 -4z m130 0 c-10 -2 -28 -2 -40 0 -13 2
-5 4 17 4 22 1 32 -1 23 -4z m1069 -30 c3 -7 -81 -11 -278 -12 -166 0 -279 3
-273 8 15 15 37 16 298 16 170 -1 251 -4 253 -12z m-3561 -41 c-10 -2 -22 0
-28 6 -6 6 0 7 19 4 21 -5 23 -7 9 -10z m3200 6 c4 -6 3 -8 -4 -4 -21 13 -24
-16 -3 -38 12 -12 21 -32 21 -45 0 -30 16 -18 23 17 8 40 71 61 94 32 16 -21
5 -33 -14 -15 -23 23 -46 15 -65 -24 -20 -41 -26 -47 -55 -56 -18 -5 -23 -2
-23 10 0 11 5 15 16 11 24 -9 14 44 -11 58 -11 6 -23 16 -27 21 -5 6 -8 5 -8
-2 0 -7 -6 -13 -12 -13 -7 1 -3 9 10 19 12 11 19 21 15 24 -5 2 -3 2 4 1 7 -2
15 1 18 6 8 13 12 12 21 -2z m131 -2 c4 -4 -11 -6 -34 -5 -23 2 -40 5 -38 8 5
8 64 6 72 -3z m38 4 c-3 -5 -11 -10 -16 -10 -6 0 -7 5 -4 10 3 6 11 10 16 10
6 0 7 -4 4 -10z m105 -1 c0 -3 -20 -7 -45 -7 -25 -1 -45 2 -45 6 0 4 20 7 45
8 25 0 45 -3 45 -7z m70 -1 c0 -5 -13 -8 -30 -8 -16 0 -30 3 -30 8 0 4 14 7
30 7 17 0 30 -3 30 -7z m64 4 c2 -4 -4 -8 -14 -8 -10 0 -16 4 -14 8 3 4 9 8
14 8 5 0 11 -4 14 -8z m-3476 -9 c-15 -2 -42 -2 -60 0 -18 2 -6 4 27 4 33 0
48 -2 33 -4z m75 0 c-7 -2 -19 -2 -25 0 -7 3 -2 5 12 5 14 0 19 -2 13 -5z m44
1 c-3 -3 -12 -4 -19 -1 -8 3 -5 6 6 6 11 1 17 -2 13 -5z m531 1 c-2 -3 -18 -5
-36 -7 -18 -1 -32 -5 -32 -9 0 -16 13 -39 19 -34 4 2 8 -2 8 -10 0 -13 -3 -13
-17 0 -18 16 -50 20 -50 6 0 -5 -7 -11 -14 -14 -10 -4 -13 -1 -10 8 3 8 14 17
23 20 10 3 18 11 18 18 0 11 -37 14 -166 16 -91 1 -168 4 -170 7 -3 2 93 4
213 4 120 -1 216 -3 214 -5z m90 -9 c3 -3 -11 -6 -31 -6 -20 0 -37 5 -37 11 0
10 56 6 68 -5z m82 -7 c0 -11 6 -19 14 -19 8 0 17 -7 20 -16 9 -25 -2 -30 -18
-9 -8 11 -20 16 -30 12 -9 -4 -16 -2 -16 3 0 6 5 10 10 10 6 0 10 5 10 10 0 6
-11 10 -25 10 -36 0 -31 15 5 16 23 1 30 -3 30 -17z m25 11 c3 -5 1 -10 -4
-10 -6 0 -11 5 -11 10 0 6 2 10 4 10 3 0 8 -4 11 -10z m783 3 c-10 -2 -26 -2
-35 0 -10 3 -2 5 17 5 19 0 27 -2 18 -5z m215 0 c-24 -2 -62 -2 -85 0 -24 2
-5 4 42 4 47 0 66 -2 43 -4z m124 1 c-3 -3 -12 -4 -19 -1 -8 3 -5 6 6 6 11 1
17 -2 13 -5z m101 -1 c-15 -2 -42 -2 -60 0 -18 2 -6 4 27 4 33 0 48 -2 33 -4z
m139 0 c-20 -2 -52 -2 -70 0 -17 2 0 4 38 4 39 0 53 -2 32 -4z m161 0 c-15 -2
-42 -2 -60 0 -18 2 -6 4 27 4 33 0 48 -2 33 -4z m280 -22 c17 -17 32 -39 32
-50 0 -29 17 -35 26 -9 4 13 7 25 7 28 0 9 42 35 52 32 7 -2 7 0 0 7 -5 5 -28
11 -50 14 -24 2 -12 4 30 5 39 0 62 -3 52 -6 -16 -7 -16 -9 5 -32 13 -13 21
-32 20 -42 -2 -13 3 -18 19 -18 18 0 19 -2 9 -15 -7 -8 -24 -15 -39 -15 -16 0
-21 3 -14 8 15 10 9 51 -11 70 -12 12 -17 12 -40 -3 -27 -18 -36 -60 -13 -68
6 -3 3 -5 -8 -5 -11 1 -32 -3 -47 -7 -28 -7 -37 2 -18 21 6 6 7 24 4 41 -5 25
-11 31 -26 28 -11 -3 -26 -10 -34 -16 -8 -7 -17 -9 -20 -6 -3 3 6 13 21 23 25
17 26 19 9 31 -10 7 -13 13 -8 13 5 0 24 -13 42 -29z m345 22 c-7 -2 -19 -2
-25 0 -7 3 -2 5 12 5 14 0 19 -2 13 -5z m-2085 -10 c-10 -2 -26 -2 -35 0 -10
3 -2 5 17 5 19 0 27 -2 18 -5z m57 -3 c-3 -5 -10 -10 -16 -10 -5 0 -9 5 -9 10
0 6 7 10 16 10 8 0 12 -4 9 -10z m268 -2 c2 -7 -9 -21 -25 -30 -18 -12 -28
-26 -28 -42 0 -29 -3 -31 -50 -40 -22 -5 -30 -4 -22 2 7 5 15 21 16 36 3 21
-2 30 -19 38 -29 13 -65 -5 -65 -33 0 -11 -4 -17 -10 -14 -5 3 -10 17 -10 31
0 22 13 30 43 25 4 0 7 3 7 9 0 6 6 10 13 10 18 0 60 -37 54 -47 -3 -5 1 -16
8 -26 14 -20 19 -16 29 25 3 15 15 29 26 33 11 4 17 12 13 21 -3 7 -1 14 5 14
6 0 12 -6 15 -12z m-1469 -19 c-10 -12 -17 -32 -16 -45 4 -32 -4 -31 -10 1 -5
24 18 65 36 65 5 0 1 -9 -10 -21z m59 -2 c11 -4 17 -16 16 -34 -2 -24 -2 -25
-6 -5 -2 12 -13 27 -24 32 -10 6 -19 16 -19 23 0 8 3 9 8 1 4 -6 15 -13 25
-17z m98 0 c-10 -9 -11 -8 -5 6 3 10 9 15 12 12 3 -3 0 -11 -7 -18z m148 -11
c0 -8 -2 -8 -5 0 -3 6 -17 9 -32 6 -26 -4 -26 -4 -7 11 21 16 46 6 44 -17z
m116 14 c17 -19 17 -19 -14 -10 -19 5 -31 5 -31 -1 0 -5 -6 -9 -12 -9 -7 1 -2
10 11 20 28 24 24 24 46 0z m163 -34 c11 -40 25 -42 39 -6 11 30 49 53 68 42
5 -4 -5 -10 -23 -16 -22 -6 -34 -17 -39 -34 -4 -16 -2 -27 5 -30 7 -2 12 -8
12 -13 0 -5 -10 -5 -24 1 -13 5 -27 6 -30 3 -3 -4 -9 8 -12 25 -8 38 -27 56
-54 49 -11 -3 -18 0 -17 7 7 36 64 15 75 -28z m2192 28 c0 -10 -6 -11 -24 -4
-20 7 -27 5 -40 -16 -9 -13 -14 -24 -11 -24 3 0 0 -6 -7 -14 -15 -16 -48 -4
-48 18 0 8 -7 19 -15 26 -23 19 -18 29 9 17 13 -7 22 -15 20 -18 -6 -11 7 -39
18 -39 5 0 7 4 3 9 -3 5 2 17 11 25 8 9 12 16 7 16 -4 1 3 7 16 14 28 15 61
10 61 -10z m390 -3 c3 -2 -3 -1 -12 2 -10 3 -27 -4 -43 -19 -37 -34 -44 -22
-9 15 28 30 33 30 64 2z m354 17 c-5 -7 -3 -8 7 -2 19 12 139 15 139 3 0 -5 7
-9 16 -9 12 0 14 -9 12 -42 -3 -40 -5 -43 -33 -45 -59 -4 -74 4 -70 37 3 29
-8 40 -20 20 -4 -6 -12 -4 -22 5 -9 9 -22 14 -30 11 -8 -3 -19 -6 -24 -6 -5 0
-9 -7 -9 -16 0 -8 -4 -12 -10 -9 -18 11 -10 45 13 55 31 12 39 12 31 -2z
m-2551 -50 c14 -32 27 -36 27 -10 0 10 7 19 15 19 10 0 12 -4 5 -12 -6 -7 -8
-19 -4 -28 5 -14 17 -17 109 -20 54 -3 44 -27 -11 -27 -27 0 -43 4 -39 10 4 6
-10 10 -34 10 -26 0 -41 5 -41 13 0 7 -3 8 -8 2 -11 -16 -46 -19 -36 -3 19 30
5 68 -26 68 -10 0 -25 -15 -34 -35 -10 -20 -22 -33 -27 -29 -5 3 -16 1 -23 -6
-8 -6 -42 -10 -77 -9 l-64 2 -1 38 c0 46 11 51 20 9 3 -16 10 -30 16 -30 6 0
9 4 5 9 -3 5 -1 13 5 16 6 4 9 1 8 -6 -2 -8 12 -15 36 -20 33 -5 39 -3 43 12
3 11 10 19 15 19 5 0 6 -4 3 -10 -3 -5 1 -10 9 -10 9 0 16 9 16 20 0 11 8 28
18 38 22 23 57 9 75 -30z m188 38 c12 7 12 5 1 -9 -11 -13 -17 -14 -27 -4 -7
7 -11 16 -8 21 3 4 9 3 13 -4 5 -8 13 -9 21 -4z m597 -9 c14 -11 16 -37 2 -37
-5 0 -10 7 -10 15 0 8 -9 19 -20 25 -15 8 -23 6 -40 -12 -11 -12 -20 -30 -20
-39 0 -10 -5 -21 -10 -24 -21 -13 3 50 27 72 23 22 43 22 71 0z m120 5 c13
-13 18 -29 14 -51 -5 -36 -17 -48 -26 -26 -3 8 -1 15 4 15 19 0 10 49 -12 64
-12 9 -17 16 -10 16 6 0 20 -8 30 -18z m92 -2 c-8 -6 -22 -10 -30 -9 -9 0 -5
6 10 14 27 14 44 10 20 -5z m130 10 c0 -5 -5 -10 -11 -10 -5 0 -7 5 -4 10 3 6
8 10 11 10 2 0 4 -4 4 -10z m57 -56 c1 -24 -3 -33 -17 -37 -16 -4 -17 -2 -7
13 8 13 8 25 0 42 -5 13 -8 29 -5 37 7 20 26 -16 29 -55z m109 44 c4 -6 -1 -8
-12 -4 -19 5 -66 -25 -63 -41 3 -20 -2 -27 -10 -14 -14 22 34 80 60 74 10 -3
22 -10 25 -15z m218 7 c-4 -8 -10 -12 -16 -9 -5 3 -8 0 -7 -7 8 -39 -34 -80
-79 -78 -13 0 -12 2 5 9 19 8 21 13 13 40 -7 23 -6 30 3 27 7 -2 12 -13 12
-25 0 -48 21 -36 28 17 3 20 15 31 44 40 1 1 0 -6 -3 -14z m-1284 -5 c0 -5 -2
-10 -4 -10 -3 0 -8 5 -11 10 -3 6 -1 10 4 10 6 0 11 -4 11 -10z m420 0 c12 -8
12 -10 -5 -9 -11 0 -29 4 -40 9 -18 8 -18 9 5 9 14 0 32 -4 40 -9z m760 0 c0
-5 -6 -7 -14 -4 -23 9 -55 -13 -49 -34 2 -10 -3 -24 -12 -32 -14 -11 -19 -11
-33 4 -16 17 -16 18 6 11 18 -5 22 -2 22 14 0 11 7 27 16 35 17 17 64 22 64 6z
m159 1 c8 -5 11 -16 7 -26 -3 -10 -1 -24 6 -33 11 -13 10 -14 -2 -10 -8 2 -17
15 -18 29 -2 13 -9 30 -14 37 -12 14 0 16 21 3z m-714 -11 c-3 -5 -12 -10 -18
-10 -7 0 -6 4 3 10 19 12 23 12 15 0z m205 -30 c0 -13 -1 -13 -10 0 -5 8 -10
22 -10 30 0 13 1 13 10 0 5 -8 10 -22 10 -30z m-1573 15 c0 -8 -4 -12 -9 -9
-5 3 -6 10 -3 15 9 13 12 11 12 -6z m778 -5 c3 -11 3 -25 -1 -31 -5 -8 -3 -9
6 -4 8 5 11 3 8 -6 -3 -8 -12 -15 -21 -17 -13 -3 -15 2 -7 27 5 19 5 31 -1 31
-5 0 -9 5 -9 10 0 18 18 11 25 -10z m1999 5 c-4 -8 -9 -15 -13 -15 -4 0 -8 7
-8 15 0 8 6 15 13 15 8 0 11 -6 8 -15z m-1301 -10 c-3 -9 -8 -14 -10 -11 -3 3
-2 9 2 15 9 16 15 13 8 -4z m874 -19 c3 -22 0 -24 -39 -23 -24 0 -33 2 -20 4
13 3 27 15 33 30 11 29 21 24 26 -11z m-2305 -6 c3 -16 1 -30 -4 -30 -4 0 -8
14 -8 30 0 17 2 30 4 30 2 0 6 -13 8 -30z m1008 -1 c0 -28 -15 -23 -18 7 -1
14 2 23 8 19 6 -3 10 -15 10 -26z m1327 16 c0 -8 -4 -15 -9 -15 -4 0 -8 7 -8
15 0 8 4 15 8 15 5 0 9 -7 9 -15z m613 5 c0 -5 7 -10 16 -10 14 0 14 -3 4 -15
-7 -8 -27 -15 -44 -14 -30 0 -30 1 -8 11 13 7 21 17 18 25 -3 7 -1 13 4 13 6
0 10 -4 10 -10z m-2310 -38 c3 -2 -6 -2 -19 0 -14 2 -25 11 -27 21 -2 18 -2
18 19 0 12 -10 24 -19 27 -21z m2433 18 c4 -18 0 -20 -35 -20 -24 0 -37 4 -33
10 4 6 10 8 14 5 5 -2 17 2 27 10 10 8 20 15 20 15 1 0 4 -9 7 -20z m-3338 0
c-3 -5 -14 -10 -23 -9 -14 0 -13 2 3 9 27 11 27 11 20 0z m105 0 c12 -8 11
-10 -7 -10 -12 0 -25 5 -28 10 -8 13 15 13 35 0z m140 -5 c0 -9 -6 -12 -15 -9
-8 4 -15 10 -15 15 0 5 7 9 15 9 8 0 15 -7 15 -15z m2735 6 c-3 -5 -2 -11 2
-14 5 -2 2 -2 -5 -1 -7 2 -21 -2 -32 -8 -23 -15 -37 -5 -19 14 14 15 63 23 54
9z m-1145 -11 c13 -9 13 -10 0 -10 -8 0 -22 5 -30 10 -13 9 -13 10 0 10 8 0
22 -5 30 -10z m-1150 -31 c0 -5 -4 -9 -10 -9 -5 0 -10 7 -10 16 0 8 5 12 10 9
6 -3 10 -10 10 -16z m-427 -6 c-7 -2 -19 -2 -25 0 -7 3 -2 5 12 5 14 0 19 -2
13 -5z m240 0 c-7 -2 -19 -2 -25 0 -7 3 -2 5 12 5 14 0 19 -2 13 -5z"/>
<path d="M366 2693 c-6 -14 -5 -15 5 -6 7 7 10 15 7 18 -3 3 -9 -2 -12 -12z"/>
<path d="M1090 2610 c0 -5 4 -10 9 -10 6 0 13 5 16 10 3 6 -1 10 -9 10 -9 0
-16 -4 -16 -10z"/>
<path d="M1113 2505 c-15 -16 -17 -26 -5 -24 4 1 9 0 12 -1 21 -8 41 -6 50 5
9 10 7 16 -9 24 -25 14 -33 13 -48 -4z"/>
<path d="M1047 2473 c-10 -19 -12 -43 -8 -72 5 -39 8 -42 19 -28 8 9 11 21 7
28 -10 15 13 29 48 29 17 0 27 5 27 15 0 10 -11 15 -35 15 -25 0 -33 4 -29 14
10 27 -15 26 -29 -1z"/>
<path d="M1172 2403 c4 -21 58 -53 87 -50 31 2 26 9 -29 40 -59 32 -62 32 -58
10z"/>
<path d="M667 2400 c-11 -17 -13 -31 -8 -35 6 -3 17 8 26 24 20 39 4 49 -18
11z"/>
<path d="M2766 2086 c7 -19 27 -26 44 -16 10 6 8 11 -8 19 -28 15 -42 14 -36
-3z"/>
<path d="M3015 1766 c0 -37 15 -44 15 -8 0 18 -4 32 -8 32 -4 0 -8 -11 -7 -24z"/>
<path d="M1601 1934 c0 -11 3 -14 6 -6 3 7 2 16 -1 19 -3 4 -6 -2 -5 -13z"/>
<path d="M2635 1930 c3 -5 8 -10 11 -10 2 0 4 5 4 10 0 6 -5 10 -11 10 -5 0
-7 -4 -4 -10z"/>
<path d="M2261 1771 c-19 -34 -9 -42 23 -18 16 12 16 14 3 26 -13 10 -17 9
-26 -8z"/>
<path d="M1910 1239 c0 -5 5 -7 10 -4 6 3 10 8 10 11 0 2 -4 4 -10 4 -5 0 -10
-5 -10 -11z"/>
<path d="M2466 974 c-8 -22 -8 -23 9 -20 23 3 27 12 11 25 -11 9 -15 8 -20 -5z"/>
<path d="M3587 923 c-15 -14 -6 -21 21 -18 15 2 36 4 47 4 17 1 17 3 5 11 -17
11 -63 13 -73 3z"/>
<path d="M1948 913 c7 -3 16 -2 19 1 4 3 -2 6 -13 5 -11 0 -14 -3 -6 -6z"/>
<path d="M1400 900 c-12 -8 -12 -10 2 -15 20 -8 41 2 33 16 -8 11 -16 11 -35
-1z"/>
<path d="M1175 839 c-28 -4 -14 -6 45 -7 84 0 97 4 30 10 -19 2 -53 0 -75 -3z"/>
<path d="M576 1265 c-9 -26 -7 -32 5 -12 6 10 9 21 6 23 -2 3 -7 -2 -11 -11z"/>
<path d="M3718 1173 c7 -3 16 -2 19 1 4 3 -2 6 -13 5 -11 0 -14 -3 -6 -6z"/>
<path d="M430 741 c0 -6 4 -13 10 -16 6 -3 7 1 4 9 -7 18 -14 21 -14 7z"/>
<path d="M4062 625 c-27 -34 -16 -61 25 -59 25 1 28 5 25 30 -2 16 -9 35 -16
42 -11 11 -17 9 -34 -13z"/>
<path d="M645 3700 c4 -6 11 -8 16 -5 14 9 11 15 -7 15 -8 0 -12 -5 -9 -10z"/>
<path d="M161 3494 c0 -11 3 -14 6 -6 3 7 2 16 -1 19 -3 4 -6 -2 -5 -13z"/>
<path d="M1230 1575 c5 -6 30 -11 55 -10 25 1 48 -2 51 -7 3 -4 11 -5 17 -1 7
4 23 9 37 11 63 8 30 17 -65 18 -75 0 -102 -3 -95 -11z"/>
</g>
</svg>
